<?xml version="1.0" encoding="UTF-8" standalone="no"?>
<svg
   version="1.1"
   width="1024"
   height="1024"
   id="svg32"
   sodipodi:docname="LogoBleu.svg"
   inkscape:version="1.4.3 (0d15f75, 2025-12-25)"
   xmlns:inkscape="http://www.inkscape.org/namespaces/inkscape"
   xmlns:sodipodi="http://sodipodi.sourceforge.net/DTD/sodipodi-0.dtd"
   xmlns="http://www.w3.org/2000/svg"
   xmlns:svg="http://www.w3.org/2000/svg">
  <defs
     id="defs32" />
  <sodipodi:namedview
     id="namedview32"
     pagecolor="#ffffff"
     bordercolor="#000000"
     borderopacity="0.25"
     inkscape:showpageshadow="2"
     inkscape:pageopacity="0.0"
     inkscape:pagecheckerboard="0"
     inkscape:deskcolor="#d1d1d1"
     inkscape:zoom="1.0675655"
     inkscape:cx="488.96297"
     inkscape:cy="493.17817"
     inkscape:window-width="1920"
     inkscape:window-height="991"
     inkscape:window-x="2391"
     inkscape:window-y="357"
     inkscape:window-maximized="1"
     inkscape:current-layer="svg32" />
  <path
     d="m -0.52805745,-1.2419802 c 337.91990745,0 675.83990745,0 1023.99995745,0 0,337.9200002 0,675.8400002 0,1023.9999802 -337.92005,0 -675.84005,0 -1023.99995745,0 0,-337.91998 0,-675.83998 0,-1023.9999802 z"
     fill="#172b45"
     id="path1" />
  <circle
     style="opacity:0.8;fill:#f3f5f7;fill-opacity:1;stroke-width:0.85641;paint-order:markers fill stroke"
     id="path33-5"
     cx="478.08472"
     cy="575.66064"
     r="4.8884587" />
  <path
     d="M0 0 C0.96523087 -0.00960754 1.93046173 -0.01921509 2.92494202 -0.02911377 C3.96347824 -0.03336365 5.00201447 -0.03761353 6.07202148 -0.04199219 C7.15007553 -0.04769226 8.22812958 -0.05339233 9.33885193 -0.05926514 C11.62270122 -0.06871033 13.90656412 -0.07524721 16.19042969 -0.07910156 C19.65576581 -0.08876306 23.12049749 -0.11977341 26.58569336 -0.15136719 C28.81029923 -0.15790216 31.03490933 -0.16315068 33.25952148 -0.16699219 C34.28388809 -0.17933899 35.3082547 -0.19168579 36.36366272 -0.20440674 C48.30525563 -0.1681077 59.29289688 2.82561976 68.20483398 11.08300781 C75.27854265 18.73507002 77.26939061 26.3285127 77.22827148 36.64941406 C77.22614906 37.70421211 77.22614906 37.70421211 77.22398376 38.78031921 C77.21841632 41.01146825 77.20586998 43.24251445 77.19311523 45.47363281 C77.18809602 46.99251156 77.18353385 48.5113919 77.17944336 50.03027344 C77.16845759 53.74059293 77.15121558 57.45085282 77.13061523 61.16113281 C77.89027588 61.34071533 78.64993652 61.52029785 79.43261719 61.70532227 C85.87298472 63.26520495 92.11562109 65.01805189 98.31811523 67.34863281 C99.52504028 67.79928101 99.52504028 67.79928101 100.75634766 68.2590332 C153.28725503 88.26762085 196.02755699 128.36466355 220.13061523 179.16113281 C232.05124657 205.79516566 238.36049693 233.27007281 238.31811523 262.47363281 C238.31770737 263.5303569 238.31770737 263.5303569 238.31729126 264.60842896 C238.29615557 276.55651759 237.7169697 288.31272387 236.13061523 300.16113281 C236.05004883 300.84997559 235.96948242 301.53881836 235.88647461 302.24853516 C233.3198646 323.8091026 224.65695495 344.81105506 215.13061523 364.16113281 C214.64334961 365.16402344 214.15608398 366.16691406 213.65405273 367.20019531 C206.56561586 380.92108774 197.3109748 393.59581267 187.13061523 405.16113281 C186.58663086 405.8146875 186.04264648 406.46824219 185.48217773 407.14160156 C176.16827226 418.22845858 165.54100822 428.27636041 154.13061523 437.16113281 C153.80061523 437.49113281 153.47061523 437.82113281 153.13061523 438.16113281 C151.1310316 438.20194064 149.13016269 438.20367638 147.13061523 438.16113281 C145.74105498 435.38201231 146.00067877 432.74046941 145.94238281 429.68725586 C145.17205088 395.84441243 132.91531796 365.21138512 108.79467773 341.40771484 C91.51407288 324.99660878 67.75243484 314.68189647 44.22827148 312.07519531 C43.0556073 311.94141479 43.0556073 311.94141479 41.85925293 311.80493164 C39.95002445 311.58752618 38.04036226 311.3739351 36.13061523 311.16113281 C36.13614599 311.94835504 36.14167675 312.73557726 36.14737511 313.5466547 C36.27993398 332.70960259 36.37919507 351.87245886 36.44148827 371.03576756 C36.47241429 380.30306536 36.51457067 389.57005695 36.58325195 398.8371582 C36.64309257 406.91525365 36.68177351 414.99312731 36.6951462 423.07143825 C36.70296218 427.34818826 36.72130452 431.62430382 36.76499557 435.9008503 C36.80581084 439.9286547 36.81826667 443.95556517 36.80926132 447.98355675 C36.81090803 449.45938098 36.82279105 450.93523601 36.84584808 452.41088104 C37.03195715 464.9394568 37.03195715 464.9394568 33.23648071 469.50450134 C29.13379462 473.41194588 24.99995463 474.80746976 19.25952148 474.67675781 C14.97855562 473.63990002 11.87121094 470.48716093 9.13061523 467.16113281 C7.23000037 463.26842516 6.88294081 460.13729862 6.8901062 455.82731628 C6.88598221 453.91120041 6.88598221 453.91120041 6.8817749 451.95637512 C6.88885229 450.54830838 6.89612189 449.14024259 6.90356445 447.73217773 C6.90412883 446.24377449 6.90381149 444.75537069 6.90267944 443.26696777 C6.90210597 439.23221966 6.91385943 435.19759063 6.92782736 431.16287017 C6.94033558 426.94414229 6.94150529 422.72541165 6.94387817 418.50666809 C6.95009267 410.52050767 6.96650309 402.53440205 6.98657715 394.54826576 C7.00893709 385.4552229 7.01992982 376.36217741 7.02996802 367.2691139 C7.05086933 348.56642248 7.08604474 329.86378205 7.13061523 311.16113281 C4.08233254 311.46503923 1.03461912 311.77345639 -2.01293945 312.08447266 C-2.87136444 312.16958603 -3.72978943 312.2546994 -4.61422729 312.34239197 C-10.63976987 312.96216309 -16.34402021 313.91283663 -22.11938477 315.78613281 C-22.9445459 316.04555664 -23.76970703 316.30498047 -24.61987305 316.57226562 C-32.57636692 319.19311961 -39.78396401 322.71541744 -46.86938477 327.16113281 C-47.44849609 327.52158691 -48.02760742 327.88204102 -48.62426758 328.25341797 C-70.93914614 342.44418893 -86.10897055 362.99498671 -95.11938477 387.66113281 C-95.36591797 388.32483887 -95.61245117 388.98854492 -95.86645508 389.67236328 C-100.06974623 401.69796181 -100.21733786 414.01213207 -100.43579102 426.61816406 C-100.48026367 428.42220703 -100.48026367 428.42220703 -100.52563477 430.26269531 C-100.54432617 431.3488916 -100.56301758 432.43508789 -100.58227539 433.55419922 C-100.86938477 436.16113281 -100.86938477 436.16113281 -102.86938477 438.16113281 C-105.81127784 438.66703639 -107.89401648 438.74908575 -110.50805664 437.17333984 C-112.28540026 435.75764064 -113.95475615 434.2702865 -115.61938477 432.72363281 C-116.53953369 431.89883423 -116.53953369 431.89883423 -117.47827148 431.05737305 C-118.71463521 429.94690832 -119.94569886 428.83051164 -121.17114258 427.70800781 C-122.62021437 426.38809423 -124.09754841 425.09931987 -125.58032227 423.81738281 C-148.32724362 404.08866138 -165.77714759 378.52436919 -177.96899414 351.15283203 C-178.71853701 349.49481394 -179.51485767 347.85804101 -180.32250977 346.22753906 C-188.27866763 330.0886239 -191.60572189 311.71312844 -194.86938477 294.16113281 C-195.05041748 293.25089355 -195.2314502 292.3406543 -195.41796875 291.40283203 C-195.98848508 287.30585214 -196.05030403 283.29289972 -196.07250977 279.16113281 C-196.07952408 278.29658981 -196.08653839 277.43204681 -196.09376526 276.54130554 C-196.11126778 273.74786173 -196.11762246 270.95462954 -196.11938477 268.16113281 C-196.12005951 267.21017731 -196.12073425 266.2592218 -196.12142944 265.27944946 C-196.10568945 251.35573319 -195.70902044 237.8366617 -192.86938477 224.16113281 C-192.7030957 223.30438965 -192.53680664 222.44764648 -192.36547852 221.56494141 C-189.7082334 208.09418491 -185.36899869 195.7159132 -179.86938477 183.16113281 C-179.56693848 182.44538086 -179.26449219 181.72962891 -178.95288086 180.9921875 C-168.94113864 157.34214156 -153.50293534 136.64542486 -135.86938477 118.16113281 C-135.07016602 117.3090625 -134.27094727 116.45699219 -133.44750977 115.57910156 C-126.8044456 108.68637975 -119.50677213 102.89124871 -111.86938477 97.16113281 C-111.30735352 96.73300293 -110.74532227 96.30487305 -110.16625977 95.86376953 C-100.61243419 88.61190251 -90.50515306 82.68644805 -79.86938477 77.16113281 C-79.18537598 76.80277344 -78.50136719 76.44441406 -77.79663086 76.07519531 C-48.95670267 61.16113281 -48.95670267 61.16113281 -34.86938477 61.16113281 C-34.89295044 59.83891724 -34.89295044 59.83891724 -34.91699219 58.48999023 C-34.96863369 55.16684895 -35.0059803 51.84414434 -35.03417969 48.52075195 C-35.04911127 47.09229736 -35.06946415 45.66388733 -35.09570312 44.2355957 C-35.29622667 33.02593611 -35.16542538 22.04862484 -27.66625977 13.00878906 C-20.01113508 5.1373239 -11.16605325 0.09010079 0 0 Z "
     fill="#F3F5F7"
     transform="translate(492.869384765625,170.8388671875)"
     id="path2"
     style="fill:#c7cdd4;fill-opacity:1" />
  <path
     d="M0 0 C1.09271713 -0.0038269 2.18543427 -0.00765381 3.31126404 -0.01159668 C5.60457286 -0.01430008 7.89791335 -0.00705013 10.19116211 0.00976562 C13.67827753 0.0312173 17.16333779 0.0098978 20.65039062 -0.015625 C22.89193158 -0.01298185 25.13347126 -0.00785714 27.375 0 C28.40444229 -0.00809692 29.43388458 -0.01619385 30.49452209 -0.02453613 C40.19653611 0.0996814 48.20088187 2.76249921 55.36328125 9.4609375 C60.44158982 15.44205648 63.23397082 22.5656313 63.2749939 30.34725952 C63.28359436 31.56106293 63.29219482 32.77486633 63.30105591 34.02545166 C63.30549116 35.37292438 63.30978952 36.72039755 63.31396484 38.06787109 C63.32186802 39.48562826 63.33013711 40.90338342 63.33874512 42.32113647 C63.36495826 46.98230064 63.38028022 51.6434737 63.39453125 56.3046875 C63.39989277 57.91254303 63.40527028 59.52039851 63.4106636 61.12825394 C63.43229858 67.82289286 63.45103012 74.5175294 63.462286 81.21219444 C63.47848858 90.78465679 63.51156885 100.35671086 63.56868684 109.92901933 C63.60752549 116.66977914 63.62693555 123.41043043 63.63220656 130.15129912 C63.63584339 134.171002 63.64768357 138.19026938 63.6803093 142.20985031 C63.71063328 146.00047258 63.71661661 149.79040148 63.70492554 153.58111954 C63.70460346 155.61473384 63.7289105 157.6483069 63.75430298 159.6817627 C63.68139614 170.56721267 61.04645057 181.09708066 54.04296875 189.70703125 C50.76258294 192.82073078 46.96459769 195.11371896 43.16015625 197.53515625 C35.39191381 202.63743374 29.9563575 208.03488103 26.12109375 216.53125 C25.61182594 217.53669011 25.10255814 218.54213022 24.57785797 219.57803822 C22.66611237 224.08105051 22.70466866 228.32006373 22.74255371 233.1537323 C22.73802358 234.10427516 22.73349345 235.05481802 22.72882605 236.0341652 C22.71722746 239.20935941 22.72683882 242.3841303 22.73632812 245.55932617 C22.73222197 247.83955659 22.72676084 250.11978492 22.720047 252.40000916 C22.70832912 257.30489089 22.70583507 262.20966012 22.71040344 267.11455345 C22.71721074 274.86641057 22.70135027 282.61811944 22.68200684 290.36994934 C22.65700722 301.23353253 22.64026088 312.09708505 22.63232422 322.96069336 C22.63181704 323.64950823 22.63130986 324.33832311 22.63078731 325.04801116 C22.6267544 330.63841978 22.62325978 336.22882872 22.61979008 341.81923771 C22.61673204 346.7104653 22.61345997 351.60169269 22.60986328 356.49291992 C22.60910936 357.52624337 22.60910936 357.52624337 22.6083402 358.58044203 C22.59960019 370.0616391 22.57905144 381.5427767 22.55038118 393.02394277 C22.53198853 400.73430568 22.52814535 408.44449932 22.53531647 416.15487897 C22.53683449 420.94386813 22.52607908 425.73277197 22.5119381 430.52173805 C22.50792377 432.7470022 22.50908021 434.9722824 22.51571083 437.19754028 C22.52405058 440.22847652 22.51415003 443.25881853 22.49963379 446.28971863 C22.50652772 447.17599243 22.51342166 448.06226623 22.5205245 448.97539681 C22.46488083 454.91394846 22.46488083 454.91394846 20.71413422 458.05757618 C18.86184169 459.77107628 17.73182057 460.27903854 15.24609375 460.65625 C14.25996094 460.84574219 14.25996094 460.84574219 13.25390625 461.0390625 C10.35967762 460.34996045 9.01674355 458.6911416 7.20094144 456.41634727 C5.1797786 452.88798991 5.4394496 449.2583632 5.49531555 445.28372192 C5.48489873 443.90017464 5.48489873 443.90017464 5.47427148 442.48867691 C5.45702771 439.4023493 5.47530871 436.31726452 5.4934082 433.23095703 C5.48822948 431.01647337 5.48082956 428.80199395 5.47137451 426.58752441 C5.45580597 421.82060635 5.45598682 417.0540399 5.46837807 412.28711319 C5.48790702 404.74841804 5.472729 397.21003589 5.45292664 389.6713562 C5.42885369 379.10102958 5.4207441 368.53079367 5.42651367 357.96044922 C5.43237322 347.09455347 5.43345175 336.22868768 5.42456055 325.36279297 C5.42401798 324.69383153 5.4234754 324.0248701 5.42291639 323.33563711 C5.41348974 312.1708751 5.39591256 301.00613007 5.37495202 289.84138381 C5.36188128 282.3487465 5.36062211 274.85622582 5.36908495 267.36358285 C5.37271206 262.70006988 5.36840701 258.03658666 5.36224365 253.37307739 C5.36115897 251.21237961 5.36351529 249.05167691 5.36958885 246.8909874 C5.37748967 243.93815394 5.37314631 240.98557496 5.36592102 238.03274536 C5.37126635 237.1807865 5.37661169 236.32882763 5.382119 235.45105183 C5.31519895 223.24179359 0.93594126 212.72128532 -7.3671875 203.75390625 C-10.91855105 200.61125328 -14.83186074 198.23791737 -18.86474609 195.76538086 C-26.48024438 191.03798538 -31.36961075 184.79417287 -34.87890625 176.53125 C-35.70516977 172.40461965 -36.01254797 168.4755612 -36.03953552 164.27182007 C-36.04958115 163.0356192 -36.05962677 161.79941833 -36.06997681 160.52575684 C-36.07600573 159.16870178 -36.08189082 157.81164608 -36.08764648 156.45458984 C-36.09719503 155.01506326 -36.10708662 153.57553891 -36.11729431 152.13601685 C-36.14856413 147.42143439 -36.16893327 142.70683491 -36.1875 137.9921875 C-36.19079732 137.18796246 -36.19409464 136.38373742 -36.19749188 135.55514193 C-36.22826748 127.96004291 -36.25495274 120.36493964 -36.27191067 112.76979637 C-36.2937972 103.08390651 -36.3357472 93.3985722 -36.40534824 83.71290433 C-36.45272393 76.88632864 -36.47686217 70.05990214 -36.48410755 63.23316729 C-36.48904316 59.16371414 -36.50392286 55.0948886 -36.54385185 51.02561569 C-36.5809734 47.19219797 -36.58904586 43.35975974 -36.57584572 39.52619553 C-36.57589925 38.12826601 -36.5860223 36.73029018 -36.60759735 35.33252716 C-36.75764118 25.05276435 -34.96432731 16.58064603 -28.20000458 8.53410149 C-20.74525125 1.10774623 -9.99175788 -0.07874351 0 0 Z "
     fill="#192E47"
     id="path3"
     transform="translate(500.87890625,177.46875)" />
  <path
     d="m 0,0 v 54 c -12,3 -12,3 -16.40625,4.070312 -26.23663,6.617483 -49.50532,20.515949 -69.292969,38.820313 -2.072107,1.899725 -4.199192,3.691635 -6.363281,5.484375 -4.959638,4.34464 -8.92476,9.41491 -12.9375,14.625 l -1.3418,1.73682 C -113.01889,127.43436 -118.88497,136.28248 -124,146 l -1.03516,1.95801 C -141.18125,178.74581 -146.63494,210.58614 -148,245 h -1 l -0.35132,-2.17139 c -0.52535,-3.23509 -1.0557,-6.46935 -1.58618,-9.70361 -1.47687,-7.81569 -3.10656,-15.54075 -3.26563,-23.53125 l -0.0173,-2.88879 c -0.009,-2.03104 -0.016,-4.06209 -0.0198,-6.09314 -0.01,-3.04408 -0.0405,-6.08744 -0.0723,-9.13135 -0.083,-15.18111 1.23275,-29.73369 5.5625,-44.35547 l 0.64014,-2.20801 c 0.68382,-2.31212 1.39217,-4.61517 2.10986,-6.91699 l 0.7334,-2.38184 C -139.1289,116.02019 -130.19725,97.552071 -118,81 l 1.2793,-1.746094 c 19.014478,-25.676697 43.21594,-47.599782 71.709958,-62.217773 1.83757,-0.946898 3.655806,-1.931077 5.47168,-2.918945 C -28.335803,8.1829192 -12.887102,0 0,0 Z"
     fill="#182c45"
     id="path4"
     transform="translate(458,239)"
     sodipodi:nodetypes="cccccccccccccccccccccccccc" />
  <path
     d="M0 0 C8.04194211 2.01048553 15.21739708 4.01508503 22.75 7.1875 C23.70028076 7.58404785 24.65056152 7.9805957 25.62963867 8.38916016 C43.81185722 16.07014792 60.70165773 25.42007772 76 38 C76.77472656 38.59167969 77.54945313 39.18335938 78.34765625 39.79296875 C98.79378192 55.73662934 115.05648353 75.65293427 128 98 C128.3810791 98.65371582 128.7621582 99.30743164 129.15478516 99.98095703 C138.84878786 116.82877852 145.97650347 134.98540473 150 154 C150.28488281 155.21042969 150.56976562 156.42085937 150.86328125 157.66796875 C153.82706353 170.54848224 154.26219095 183.39500523 154.3125 196.5625 C154.31644775 197.31769928 154.32039551 198.07289856 154.32446289 198.85098267 C154.36001605 213.52883356 152.75569727 227.567402 150 242 C149.67 242 149.34 242 149 242 C148.89042969 240.86046875 148.78085937 239.7209375 148.66796875 238.546875 C143.87526716 190.06027878 130.73408312 147.12893687 98 110 C97.3503125 109.22785156 96.700625 108.45570313 96.03125 107.66015625 C92.0496717 102.94560559 87.72112691 98.96149922 83 95 C82.17242188 94.26136719 81.34484375 93.52273438 80.4921875 92.76171875 C56.96823714 72.21921614 29.79258041 62.1252492 0 54 C0 36.18 0 18.36 0 0 Z "
     fill="#182C45"
     id="path5"
     transform="translate(570,239)" />
  <path
     d="m 0,0 c 20.651315,2.5814144 40.736745,11.535452 58,23 l 1.807617,1.195312 C 67.580875,29.397061 74.613476,35.10675 81.390625,41.546875 83.437277,43.470973 85.495792,45.250655 87.6875,47 92.463433,51.04916 96.151529,56.095085 100,61 l 2.51563,3.109375 C 108.52892,71.616483 113.52086,79.485151 118,88 l 1.02344,1.93457 c 16.41237,29.46273 22.11154,62.26311 24.685,95.31305 0.11194,29.89565 -2.37189,29.73007 -9.33344,41.81488 l -1.27344,2.36914 C 132.09223,231.30121 131.04992,233.15292 130,235 h -1 l -0.0442,-3.29443 c -0.059,-4.12676 -0.13623,-8.25304 -0.21826,-12.3794 -0.0328,-1.76847 -0.0609,-3.53704 -0.084,-5.30566 -0.21725,-16.25273 -2.07521,-31.72583 -6.52856,-47.39551 l -0.80029,-2.84204 C 119.35087,156.92695 117.15789,150.41238 114,144 l -1.22705,-2.50342 C 106.73483,129.27944 100.43757,117.71838 92,107 l -2.199219,-2.86719 C 66.860799,75.056282 35.671686,56.917922 0,48 Z"
     fill="#182d46"
     id="path6"
     transform="translate(570,300)"
     sodipodi:nodetypes="ccccccccccccccccccccccccc" />
  <path
     d="M0 0 C0 15.51 0 31.02 0 47 C-5.28 48.32 -10.56 49.64 -16 51 C-56.14999572 63.47003367 -88.98826968 93.37737022 -108.546875 130.1640625 C-115.97791119 144.58310808 -121.51533814 159.16062791 -125 175 C-125.15694336 175.70447266 -125.31388672 176.40894531 -125.47558594 177.13476562 C-128.2533495 189.78703064 -129.2016444 202.15859829 -129.5625 215.0625 C-129.60578755 216.5149839 -129.64940474 217.96745801 -129.69335938 219.41992188 C-129.79937254 222.94650991 -129.90092748 226.47320935 -130 230 C-141.00861464 219.50439331 -140.66939048 202.21588012 -141.08447266 188.13427734 C-141.21939851 181.75107792 -141.14708859 175.38214885 -141 169 C-140.99129883 168.27039063 -140.98259766 167.54078125 -140.97363281 166.7890625 C-140.59605733 139.18699265 -132.07529089 112.1178685 -119 88 C-118.51015625 87.03320312 -118.0203125 86.06640625 -117.515625 85.0703125 C-97.18651332 45.66838255 -58.81236372 15.37778995 -17 2 C-16.23171875 1.75378906 -15.4634375 1.50757813 -14.671875 1.25390625 C-9.47130613 -0.23050809 -5.75066307 0 0 0 Z "
     fill="#182D46"
     transform="translate(458,301)"
     id="path7" />
  <path
     d="M0 0 C0.43570313 0.92941406 0.87140625 1.85882813 1.3203125 2.81640625 C6.8556614 14.41711763 11.40978942 20.19050184 22.71875 26.8046875 C27.65975409 30.11045452 31.43156941 34.26975479 35 39 C35 39.33 35 39.66 35 40 C34.26587891 40.06993164 33.53175781 40.13986328 32.77539062 40.21191406 C-9.21252461 44.30028026 -45.71729217 58.93407718 -73.45703125 91.921875 C-94.13123977 117.59739436 -108.32109639 151.62536383 -108.09765625 184.875 C-108.09553383 186.08990112 -108.09553383 186.08990112 -108.09336853 187.3293457 C-108.08782383 189.88626994 -108.07528207 192.44310276 -108.0625 195 C-108.05747784 196.74609247 -108.05291619 198.49218634 -108.04882812 200.23828125 C-108.0378726 204.49222209 -108.02064694 208.74609561 -108 213 C-108.77649902 212.21818359 -109.55299805 211.43636719 -110.35302734 210.63085938 C-111.97913627 209.01464929 -113.63925079 207.43083318 -115.3515625 205.90625 C-125.26055231 195.4183845 -124.36813782 180.64860249 -125 167 C-125.04979004 166.02272949 -125.09958008 165.04545898 -125.15087891 164.03857422 C-126.77537221 127.51755813 -114.46806714 88.8460991 -92 60 C-91.53464844 59.34386719 -91.06929688 58.68773437 -90.58984375 58.01171875 C-72.20428552 32.12185103 -33.67528801 0 0 0 Z "
     fill="#182D46"
     transform="translate(460,354)"
     id="path8" />
  <path
     d="m 0,0 c 30.563348,0.97026502 59.919365,24.163314 80.347656,45.101562 28.855234,31.532521 44.397494,72.892038 43.933594,115.450928 -0.0315,2.90646 -0.041,5.81238 -0.0469,8.71899 C 124.21413,174.51611 124.13341,179.75707 124,185 l -0.0908,3.58691 c -0.31298,5.68939 -1.17455,8.94721 -5.15918,13.28809 l -2.32812,2.61719 C 113.97632,207.02452 111.50258,209.52405 109,212 l 0.0476,-2.20532 C 109.62202,178.90972 106.21122,151.10375 93,123 l -1.046875,-2.22705 C 86.134924,108.63994 78.89905,96.573452 69.140625,87.171875 67,85 65,83 65,83 61.214809,78.666496 57.937862,75.041309 53.6875,71.75 L 51.846436,70.324707 C 25.795148,50.514978 -0.73587569,42.354233 -33,39 c 3.143117,-6.508756 6.768256,-9.987781 12.8125,-13.875 8.925106,-5.778294 16.8691338,-12.773122 19.81640625,-23.390625 z"
     fill="#182c45"
     id="path9"
     transform="translate(568,355)"
     sodipodi:nodetypes="ccccccccccsccccccccc" />
  <path
     d="M0 0 C0.77021484 0.00451172 1.54042969 0.00902344 2.33398438 0.01367188 C4.2018578 0.02527357 6.06969026 0.04320001 7.9375 0.0625 C9.10411952 4.22654764 9.06326063 8.2523068 9.03515625 12.546875 C9.03303383 13.77026581 9.03303383 13.77026581 9.03086853 15.01837158 C9.02528303 17.61645212 9.01273321 20.21444563 9 22.8125 C8.99498312 24.57682167 8.99042054 26.34114469 8.98632812 28.10546875 C8.97531835 32.42451256 8.95806369 36.74349154 8.9375 41.0625 C7.76646729 41.11003418 6.59543457 41.15756836 5.38891602 41.20654297 C-3.27842742 41.59663551 -11.66644182 42.11952497 -20.125 44.1875 C-21.50703613 44.51790283 -21.50703613 44.51790283 -22.91699219 44.85498047 C-43.07605464 49.91044629 -61.73156523 59.98075251 -77.0625 74.0625 C-77.57087402 74.52849609 -78.07924805 74.99449219 -78.60302734 75.47460938 C-108.05110846 102.79338129 -121.32173889 138.90389895 -122.91137695 178.52709961 C-122.97195939 180.37192612 -123.01897859 182.21719218 -123.0625 184.0625 C-124.20876322 183.08383662 -125.35449788 182.10455413 -126.5 181.125 C-127.13808594 180.57972656 -127.77617187 180.03445313 -128.43359375 179.47265625 C-133.2884402 175.26977959 -132.39681155 166.30421172 -132.86914062 160.15283203 C-135.41858109 119.40685042 -125.84685597 79.90782249 -98.70458984 48.49072266 C-95.56586113 44.94160326 -92.32602946 41.49673716 -89.0625 38.0625 C-88.20785156 37.11117187 -88.20785156 37.11117187 -87.3359375 36.140625 C-65.81511816 12.96435802 -31.27390005 -0.35631963 0 0 Z "
     fill="#192D46"
     transform="translate(491.0625,400.9375)"
     id="path10" />
  <path
     d="m 0,0 c 15.465272,-0.3400928 30.509073,2.7801498 45,8 l 3.382812,1.1523438 c 16.029269,5.7357742 30.011029,14.5062812 42.438264,26.0361012 1.84902,1.689346 -1.988194,-1.995855 0.0692,0.03463 C 113.97575,54.94078 131.96344,93.357021 138,122 l 0.57959,2.677 c 1.37037,6.79888 1.73542,13.33432 1.67041,20.2605 l -0.0271,3.26709 c -0.0992,6.98121 -0.28711,13.95561 -0.7854,20.92041 l -0.11035,2.41772 c -0.51527,5.69548 -2.55047,8.41254 -6.74878,12.23804 C 131,185 131,185 130,185 l -0.0125,-1.76221 C 129.80439,168.26006 127.97697,154.44037 124,140 l -0.67041,-2.49438 c -1.75757,-6.23068 -4.15067,-11.98923 -6.95459,-17.81812 l -1.33179,-2.7749 C 111.34331,109.37992 107.15432,102.64396 102,96 L 99.859375,93.191406 C 85.696938,75.23364 68.818414,62.373974 48,53 L 45.269531,51.765625 C 32.293411,46.261887 18.638213,43.399407 4.625,42.449219 L 0.8515625,42.190186 -2,42 c -0.049614,-5.017075 -0.08582,-10.034006 -0.1098633,-15.05127 -0.010028,-1.705103 -0.023654,-3.410189 -0.041016,-5.115234 -0.024389,-2.457562 -0.035636,-4.914897 -0.044434,-7.372558 l -0.03128,-2.292389 C -2.2275256,7.7217706 -1.6512164,4.1308978 0,0 Z"
     fill="#192d46"
     id="path11"
     transform="translate(531,400)"
     sodipodi:nodetypes="cccccccccccccccccccccccccccccc" />
  <path
     d="M0 0 C0 8.58 0 17.16 0 26 C-2.08699219 26.30292969 -4.17398438 26.60585938 -6.32421875 26.91796875 C-8.39354585 27.22894761 -10.46203536 27.54502788 -12.53051758 27.86157227 C-13.9444382 28.07522071 -15.35914532 28.28374114 -16.7746582 28.48657227 C-41.49250939 32.04025694 -62.17957296 43.76480866 -80 61 C-80.53842529 61.50490967 -81.07685059 62.00981934 -81.6315918 62.5300293 C-86.06584176 66.78936295 -89.57878571 71.29757282 -92.9375 76.4375 C-93.71009155 77.61493774 -93.71009155 77.61493774 -94.49829102 78.81616211 C-109.20102542 101.61951341 -113.8407522 124.09324852 -115 151 C-116.31322788 150.02180976 -117.62556152 149.0424189 -118.9375 148.0625 C-119.66839844 147.51722656 -120.39929688 146.97195313 -121.15234375 146.41015625 C-123.96317269 144.26489357 -123.96317269 144.26489357 -124.546875 140.06640625 C-125.98428603 125.74039825 -125.2418322 112.00471512 -122 98 C-121.76796875 96.7315625 -121.76796875 96.7315625 -121.53125 95.4375 C-118.64421642 79.89193459 -109.53376405 63.46892752 -100 51 C-99.505 50.30261719 -99.01 49.60523438 -98.5 48.88671875 C-79.60247318 23.04435082 -50.97115142 6.21483631 -19.77099609 0.41015625 C-13.1346436 -0.57214086 -6.69431217 -0.29361018 0 0 Z "
     fill="#192D46"
     transform="translate(500,449)"
     id="path12" />
  <path
     d="M0 0 C32.1167254 -0.78975554 60.43485755 12.05126163 83.76953125 33.86328125 C84.50558594 34.56839844 85.24164062 35.27351563 86 36 C86.68449219 36.63292969 87.36898437 37.26585937 88.07421875 37.91796875 C96.57286344 46.01589149 103.38835007 55.72151875 109 66 C109.31324219 66.57202148 109.62648438 67.14404297 109.94921875 67.73339844 C115.24097862 77.51098924 119.20344128 87.24192044 122 98 C122.3196875 99.15757812 122.639375 100.31515625 122.96875 101.5078125 C124.97474437 110.10758468 125.43934379 118.77528791 125.63656616 127.58001709 C125.68671003 129.59328274 125.77142747 131.60559145 125.85668945 133.61767578 C125.92985058 142.86690746 125.92985058 142.86690746 123.17041016 146.22949219 C121.17112692 147.73700379 119.26469194 148.94085846 117 150 C116.94054199 149.35264893 116.88108398 148.70529785 116.81982422 148.03833008 C113.24563563 110.71340123 100.49831903 77.87557013 71.5078125 52.9375 C63.35235064 46.63670704 54.43208012 41.15478027 45 37 C44.05253906 36.58105469 43.10507812 36.16210938 42.12890625 35.73046875 C29.74056963 30.61119357 16.68880964 27.76043488 3.30859375 27.17578125 C1 27 1 27 0 26 C-0.08748207 24.07332493 -0.10697334 22.14348139 -0.09765625 20.21484375 C-0.09443359 19.04501953 -0.09121094 17.87519531 -0.08789062 16.66992188 C-0.07951172 15.43822266 -0.07113281 14.20652344 -0.0625 12.9375 C-0.05798828 11.70193359 -0.05347656 10.46636719 -0.04882812 9.19335938 C-0.03699608 6.12885883 -0.02051173 3.06445279 0 0 Z "
     fill="#192D46"
     transform="translate(529,449)"
     id="path13" />
  <path
     d="M0 0 C2.25934346 1.63817153 2.9231903 2.53343817 3.38031673 5.31014156 C3.38396158 6.68089006 3.38396158 6.68089006 3.38768005 8.07933044 C3.39758469 9.12944305 3.40748932 10.17955566 3.41769409 11.26148987 C3.41094162 12.98914833 3.41094162 12.98914833 3.40405273 14.75170898 C3.41091599 15.96491821 3.41777924 17.17812744 3.42485046 18.42810059 C3.44003249 21.75678636 3.44160793 25.08491295 3.43590808 28.4135921 C3.43282039 31.19198194 3.43890402 33.97032093 3.44494683 36.74870354 C3.45900066 43.30329645 3.45742389 49.85775906 3.44604492 56.41235352 C3.43456426 63.17496939 3.44863615 69.93718867 3.4754414 76.69975227 C3.49759216 82.50537582 3.50423718 88.31087482 3.49836498 94.11653763 C3.49499246 97.58421673 3.49742952 101.05164162 3.51461601 104.5192852 C3.5329433 108.38598068 3.5189044 112.25218781 3.50170898 116.11889648 C3.51621094 117.8435186 3.51621094 117.8435186 3.53100586 119.60298157 C3.52117172 120.655914 3.51133759 121.70884644 3.50120544 122.79368591 C3.50099616 123.70789527 3.50078688 124.62210463 3.50057125 125.5640173 C2.84097243 128.77389263 1.52665607 129.97999923 -1 132 C-3.5625 132.4375 -3.5625 132.4375 -6 132 C-8.24001349 130.33967085 -8.92671928 129.45199312 -9.37752342 126.67144775 C-9.3786545 125.74894226 -9.37978558 124.82643677 -9.38095093 123.87597656 C-9.3894104 122.81600464 -9.39786987 121.75603271 -9.40658569 120.66394043 C-9.400513 119.50124634 -9.39444031 118.33855225 -9.38818359 117.140625 C-9.39344055 115.91605591 -9.39869751 114.69148682 -9.40411377 113.42980957 C-9.41506664 110.07019414 -9.41248355 106.71113186 -9.40297651 103.35154724 C-9.39538682 99.8375473 -9.4024236 96.32357117 -9.40713501 92.80957031 C-9.41259459 86.9081599 -9.4053957 81.00686207 -9.39111328 75.10546875 C-9.37478628 68.28040672 -9.38007465 61.45561353 -9.3965925 54.63055801 C-9.41020166 48.77315086 -9.41212985 42.91582469 -9.40427649 37.05840683 C-9.3995968 33.55895327 -9.39898314 30.05962612 -9.40888596 26.56018066 C-9.41915214 22.6598056 -9.40492745 18.75973225 -9.38818359 14.859375 C-9.39425629 13.69668091 -9.40032898 12.53398682 -9.40658569 11.33605957 C-9.39812622 10.27608765 -9.38966675 9.21611572 -9.38095093 8.12402344 C-9.37981985 7.20151794 -9.37868877 6.27901245 -9.37752342 5.32855225 C-8.49506186 -0.11444207 -4.95675832 -0.61959479 0 0 Z "
     fill="#F4F5F7"
     transform="translate(518,229)"
     id="path14"
     style="fill:#c7cdd4;fill-opacity:1" />
  <path
     d="M0 0 C0 4.38968456 -2.12805101 5.76905739 -5 9 C-5.66 8.67 -6.32 8.34 -7 8 C-4.69 5.36 -2.38 2.72 0 0 Z "
     fill="#314258"
     transform="translate(376,404)"
     id="path32" />
  <circle
     style="opacity:0.8;fill:#f3f5f7;fill-opacity:1;paint-order:markers fill stroke"
     id="path33"
     cx="479.27042"
     cy="506.22781"
     r="5.7080808" />
  <circle
     style="opacity:0.8;fill:#f3f5f7;fill-opacity:1;stroke-width:1.08205;paint-order:markers fill stroke"
     id="path33-9"
     cx="453.82303"
     cy="518.18817"
     r="6.1764359" />
  <circle
     style="opacity:0.8;fill:#f3f5f7;fill-opacity:1;stroke-width:1.56569;paint-order:markers fill stroke"
     id="path33-8"
     cx="475.28766"
     cy="545.25525"
     r="8.9370584" />
  <circle
     style="opacity:0.8;fill:#f3f5f7;fill-opacity:1;stroke-width:2.29092;paint-order:markers fill stroke"
     id="path33-2"
     cx="442.95001"
     cy="566.1673"
     r="13.076775" />
  <circle
     style="opacity:0.8;fill:#f3f5f7;fill-opacity:1;paint-order:markers fill stroke"
     id="path33-1"
     cx="417.00671"
     cy="593.70685"
     r="5.7080808" />
  <circle
     style="opacity:0.8;fill:#f3f5f7;fill-opacity:1;stroke-width:2.08718;paint-order:markers fill stroke"
     id="path33-11"
     cx="470.22601"
     cy="603.71021"
     r="11.913789" />
  <circle
     style="opacity:0.8;fill:#f3f5f7;fill-opacity:1;stroke-width:1.65641;paint-order:markers fill stroke"
     id="path33-27"
     cx="434.20892"
     cy="619.33246"
     r="9.4549236" />
  <circle
     style="opacity:0.8;fill:#f3f5f7;fill-opacity:1;stroke-width:0.85641;paint-order:markers fill stroke"
     id="path33-5-7"
     cx="-550.80518"
     cy="575.14093"
     r="4.8884587"
     transform="scale(-1,1)" />
  <circle
     style="opacity:0.8;fill:#f3f5f7;fill-opacity:1;paint-order:markers fill stroke"
     id="path33-7"
     cx="-549.61945"
     cy="505.70807"
     r="5.7080808"
     transform="scale(-1,1)" />
  <circle
     style="opacity:0.8;fill:#f3f5f7;fill-opacity:1;stroke-width:1.08205;paint-order:markers fill stroke"
     id="path33-9-9"
     cx="-575.06683"
     cy="517.66846"
     r="6.1764359"
     transform="scale(-1,1)" />
  <circle
     style="opacity:0.8;fill:#f3f5f7;fill-opacity:1;stroke-width:1.56569;paint-order:markers fill stroke"
     id="path33-8-3"
     cx="-553.60223"
     cy="544.73553"
     r="8.9370584"
     transform="scale(-1,1)" />
  <circle
     style="opacity:0.8;fill:#f3f5f7;fill-opacity:1;stroke-width:2.29092;paint-order:markers fill stroke"
     id="path33-2-1"
     cx="-585.93988"
     cy="565.64758"
     r="13.076775"
     transform="scale(-1,1)" />
  <circle
     style="opacity:0.8;fill:#f3f5f7;fill-opacity:1;paint-order:markers fill stroke"
     id="path33-1-9"
     cx="-611.88318"
     cy="593.18713"
     r="5.7080808"
     transform="scale(-1,1)" />
  <circle
     style="opacity:0.8;fill:#f3f5f7;fill-opacity:1;stroke-width:2.08718;paint-order:markers fill stroke"
     id="path33-11-8"
     cx="-558.66388"
     cy="603.19049"
     r="11.913789"
     transform="scale(-1,1)" />
  <circle
     style="opacity:0.8;fill:#f3f5f7;fill-opacity:1;stroke-width:1.65641;paint-order:markers fill stroke"
     id="path33-27-6"
     cx="-594.68097"
     cy="618.81274"
     r="9.4549236"
     transform="scale(-1,1)" />
</svg>
