<?xml version="1.0" encoding="UTF-8" standalone="no"?>
<svg
   version="1.1"
   width="597.21399"
   height="597.21399"
   id="svg32"
   sodipodi:docname="LogoBleu.svg"
   inkscape:version="1.4.3 (0d15f75, 2025-12-25)"
   inkscape:export-filename="LogoBleuRond.svg"
   inkscape:export-xdpi="96"
   inkscape:export-ydpi="96"
   xmlns:inkscape="http://www.inkscape.org/namespaces/inkscape"
   xmlns:sodipodi="http://sodipodi.sourceforge.net/DTD/sodipodi-0.dtd"
   xmlns="http://www.w3.org/2000/svg"
   xmlns:svg="http://www.w3.org/2000/svg">
  <defs
     id="defs32" />
  <sodipodi:namedview
     id="namedview32"
     pagecolor="#ffffff"
     bordercolor="#000000"
     borderopacity="0.25"
     inkscape:showpageshadow="2"
     inkscape:pageopacity="0.0"
     inkscape:pagecheckerboard="0"
     inkscape:deskcolor="#d1d1d1"
     inkscape:zoom="0.53378275"
     inkscape:cx="-42.15198"
     inkscape:cy="368.1273"
     inkscape:window-width="1920"
     inkscape:window-height="991"
     inkscape:window-x="2391"
     inkscape:window-y="357"
     inkscape:window-maximized="1"
     inkscape:current-layer="svg32">
    <inkscape:page
       x="0"
       y="0"
       width="597.21399"
       height="597.21399"
       id="page2"
       margin="0"
       bleed="0" />
  </sodipodi:namedview>
  <circle
     style="opacity:1;vector-effect:non-scaling-stroke;fill:#172b45;fill-opacity:1;stroke-width:4.49704;-inkscape-stroke:hairline;paint-order:markers fill stroke"
     id="path15"
     cx="298.60721"
     cy="298.60721"
     r="298.60721" />
  <g
     id="g1"
     transform="translate(-213.39278,-109.47199)">
    <circle
       style="opacity:0.8;fill:#f3f5f7;fill-opacity:1;stroke-width:0.85641;paint-order:markers fill stroke"
       id="path33-5"
       cx="478.08472"
       cy="575.66064"
       r="4.8884587" />
    <path
       d="m 0,0 c 0.96523087,-0.00960754 1.9304617,-0.01921509 2.924942,-0.02911377 1.0385362,-0.0042499 2.0770725,-0.0084998 3.1470795,-0.01287842 1.078054,-0.0057001 2.1561081,-0.01140014 3.2668304,-0.01727295 2.2838491,-0.0094452 4.5677121,-0.01598207 6.8515781,-0.01983642 3.465336,-0.0096615 6.930067,-0.04067185 10.395263,-0.07226563 2.224606,-0.006535 4.449216,-0.0117835 6.673828,-0.015625 1.024367,-0.0123468 2.048734,-0.0246936 3.104142,-0.0374145 11.941593,0.036299 22.929234,3.03002659 31.841171,11.28741469 7.073709,7.652062 9.064557,15.245505 9.023437,25.566406 -0.0021,1.054798 -0.0021,1.054798 -0.0043,2.130905 -0.0056,2.231149 -0.01811,4.462195 -0.03087,6.693314 -0.005,1.518879 -0.0096,3.037759 -0.01367,4.55664 -0.01099,3.71032 -0.02823,7.42058 -0.04883,11.13086 0.759661,0.179582 1.519322,0.359165 2.302002,0.544189 6.440368,1.559883 12.683004,3.31273 18.885498,5.643311 1.206925,0.450648 1.206925,0.450648 2.438239,0.9104 52.53091,20.008588 95.27121,60.105627 119.37427,110.902097 11.92063,26.63404 18.22988,54.10894 18.1875,83.3125 -4.1e-4,1.05673 -4.1e-4,1.05673 -8.3e-4,2.1348 -0.0211,11.94809 -0.60032,23.70429 -2.18667,35.5527 -0.0806,0.68885 -0.16114,1.37769 -0.24415,2.08741 -2.56661,21.56056 -11.22952,42.56252 -20.75585,61.91259 -0.48727,1.00289 -0.97454,2.00578 -1.47657,3.03907 -7.08843,13.72089 -16.34308,26.39561 -26.52343,37.96093 -0.54399,0.65356 -1.08797,1.30711 -1.64844,1.98047 -9.31391,11.08686 -19.94117,21.13476 -31.35156,30.01953 -0.33,0.33 -0.66,0.66 -1,1 -1.99959,0.0408 -4.00046,0.0426 -6,0 -1.38957,-2.77912 -1.12994,-5.42066 -1.18824,-8.47387 -0.77033,-33.84285 -13.02706,-64.47587 -37.1477,-88.27955 -17.280611,-16.4111 -41.042249,-26.72581 -64.566413,-29.33251 -1.172664,-0.13379 -1.172664,-0.13379 -2.369018,-0.27027 -1.909229,-0.2174 -3.818891,-0.43099 -5.728638,-0.6438 0.0055,0.78723 0.01106,1.57445 0.01676,2.38552 0.132559,19.16295 0.23182,38.32581 0.294113,57.48912 0.03093,9.2673 0.07308,18.53429 0.141764,27.80139 0.05984,8.07809 0.09852,16.15597 0.111894,24.23428 0.0078,4.27675 0.02616,8.55286 0.06985,12.82941 0.04082,4.0278 0.05327,8.05472 0.04427,12.08271 0.0016,1.47582 0.01353,2.95168 0.03659,4.42732 0.186109,12.52858 0.186109,12.52858 -3.609367,17.09362 -4.102686,3.90745 -8.236526,5.30297 -13.97696,5.17226 -4.280965,-1.03686 -7.38831,-4.1896 -10.1289058,-7.51563 -1.9006148,-3.8927 -2.2476744,-7.02383 -2.240509,-11.33381 -0.00412,-1.91612 -0.00412,-1.91612 -0.00833,-3.87094 0.00708,-1.40807 0.014347,-2.81614 0.021789,-4.2242 5.644e-4,-1.48841 2.471e-4,-2.97681 -8.85e-4,-4.46521 -5.734e-4,-4.03475 0.01118,-8.06938 0.025148,-12.1041 0.012508,-4.21873 0.013678,-8.43746 0.016051,-12.6562 0.00621,-7.98616 0.022625,-15.97227 0.042699,-23.9584 0.02236,-9.09305 0.033353,-18.18609 0.043391,-27.27916 0.020901,-18.70269 0.056077,-37.40533 0.1006472,-56.10798 -3.0482827,0.30391 -6.0959961,0.61233 -9.1435547,0.92334 -0.8584249,0.0851 -1.7168499,0.17023 -2.6012878,0.25792 -6.0255429,0.61977 -11.7297929,1.57045 -17.5051579,3.44374 -0.825161,0.25943 -1.650322,0.51885 -2.500488,0.78614 -7.956494,2.62085 -15.164091,6.14315 -22.249512,10.58886 -0.579111,0.36046 -1.158222,0.72091 -1.754883,1.09229 -22.314878,14.19077 -37.484703,34.74157 -46.495117,59.40771 -0.246533,0.66371 -0.493066,1.32741 -0.74707,2.01123 -4.20329,12.0256 -4.35088,24.33977 -4.56933,36.9458 -0.0445,1.80405 -0.0445,1.80405 -0.0898,3.64454 -0.0187,1.08619 -0.0374,2.17239 -0.0566,3.2915 -0.2871,2.60693 -0.2871,2.60693 -2.2871,4.60693 -2.9419,0.50591 -5.02464,0.58796 -7.63868,-0.98779 -1.77734,-1.4157 -3.4467,-2.90305 -5.11132,-4.44971 -0.92015,-0.8248 -0.92015,-0.8248 -1.85889,-1.66626 -1.23637,-1.11046 -2.46743,-2.22686 -3.69287,-3.34936 -1.44907,-1.31992 -2.92641,-2.60869 -4.40918,-3.89063 -22.74692,-19.72872 -40.19683,-45.29301 -52.38867,-72.66455 -0.74955,-1.65802 -1.54587,-3.29479 -2.35352,-4.92529 -7.95616,-16.13892 -11.28321,-34.51441 -14.54687,-52.06641 -0.18104,-0.91024 -0.36207,-1.82048 -0.54859,-2.7583 -0.57052,-4.09698 -0.63233,-8.10993 -0.65454,-12.2417 -0.007,-0.86454 -0.014,-1.72908 -0.0213,-2.61982 -0.0175,-2.79345 -0.0238,-5.58668 -0.0256,-8.38018 -6.8e-4,-0.95095 -0.001,-1.90191 -0.002,-2.88168 0.0157,-13.92372 0.41241,-27.44279 3.25205,-41.11832 0.16628,-0.85674 0.33257,-1.71348 0.5039,-2.59619 2.65725,-13.47076 6.99648,-25.84903 12.4961,-38.40381 0.30244,-0.71575 0.60489,-1.4315 0.9165,-2.16894 10.01174,-23.65005 25.44994,-44.34677 43.0835,-62.83106 0.79921,-0.85207 1.59843,-1.70414 2.42187,-2.58203 6.64306,-6.89272 13.94074,-12.68785 21.57813,-18.417967 0.56203,-0.42813 1.12406,-0.85626 1.70312,-1.297363 9.55383,-7.251867 19.661102,-13.177322 30.29687,-18.702637 0.684009,-0.35836 1.368018,-0.716719 2.072754,-1.085938 28.839928,-14.914062 28.839928,-14.914062 42.927246,-14.914062 -0.02356,-1.322216 -0.02356,-1.322216 -0.04761,-2.671143 -0.05164,-3.323141 -0.08899,-6.645846 -0.117188,-9.969238 -0.01493,-1.428455 -0.03528,-2.856865 -0.06152,-4.285156 -0.200524,-11.20966 -0.06972,-22.186971 7.429443,-31.226807 C -20.011135,5.1373239 -11.166053,0.09010079 0,0 Z"
       fill="#F3F5F7"
       id="path2"
       style="fill:#c7cdd4;fill-opacity:1"
       transform="translate(492.86938,170.83887)" />
    <path
       d="m 0,0 c 1.0927171,-0.0038269 2.1854343,-0.00765381 3.311264,-0.01159668 2.2933089,-0.0027034 4.5866493,0.00454655 6.879898,0.0213623 C 13.678278,0.0312173 17.163338,0.0098978 20.650391,-0.015625 22.891932,-0.0129818 25.133471,-0.00785714 27.375,0 c 1.029442,-0.00809692 2.058885,-0.01619385 3.119522,-0.02453613 9.702014,0.12421753 17.70636,2.78703533 24.868759,9.48547363 5.078309,5.9811185 7.87069,13.1046935 7.911713,20.8863225 0.0086,1.213803 0.0172,2.427606 0.02606,3.678192 0.0044,1.347472 0.0087,2.694946 0.01291,4.042419 0.0079,1.417757 0.01617,2.835512 0.02478,4.253265 0.02621,4.661165 0.04153,9.322338 0.05579,13.983551 0.0054,1.607856 0.01074,3.215712 0.01613,4.823567 0.02164,6.694639 0.04037,13.389275 0.05162,20.08394 0.0162,9.572463 0.04928,19.144516 0.106401,28.716826 0.03884,6.74076 0.05825,13.48141 0.06352,20.22228 0.0036,4.0197 0.01548,8.03897 0.0481,12.05855 0.03032,3.79062 0.03631,7.58055 0.02462,11.37127 -3.23e-4,2.03361 0.02398,4.06719 0.04938,6.10064 -0.07291,10.88545 -2.707852,21.41532 -9.711334,30.02527 -3.280386,3.1137 -7.078371,5.40669 -10.882813,7.82813 -7.768242,5.10227 -13.203799,10.49972 -17.039062,18.99609 -0.509268,1.00544 -1.018536,2.01088 -1.543236,3.04679 -1.911746,4.50301 -1.873189,8.74202 -1.835304,13.57569 -0.0045,0.95055 -0.0091,1.90109 -0.01373,2.88044 -0.0116,3.17519 -0.002,6.34996 0.0075,9.52516 -0.0041,2.28023 -0.0096,4.56045 -0.01628,6.84068 -0.01172,4.90488 -0.01421,9.80965 -0.0096,14.71454 0.0068,7.75186 -0.0091,15.50357 -0.0284,23.2554 -0.025,10.86358 -0.04175,21.72714 -0.04968,32.59074 -5.07e-4,0.68882 -0.001,1.37763 -0.0015,2.08732 -0.004,5.59041 -0.0075,11.18082 -0.011,16.77123 -0.0031,4.89123 -0.0063,9.78245 -0.0099,14.67368 -7.54e-4,1.03332 -7.54e-4,1.03332 -0.0015,2.08752 -0.0087,11.4812 -0.02929,22.96234 -0.05796,34.4435 -0.01839,7.71037 -0.02224,15.42056 -0.01506,23.13094 0.0015,4.78899 -0.0092,9.57789 -0.02338,14.36686 -0.004,2.22526 -0.0029,4.45054 0.0038,6.6758 0.0083,3.03094 -0.0016,6.06128 -0.01608,9.09218 0.0069,0.88627 0.01379,1.77255 0.02089,2.68568 -0.05564,5.93855 -0.05564,5.93855 -1.80639,9.08218 -1.852292,1.7135 -2.982313,2.22146 -5.46804,2.59867 -0.986133,0.18949 -0.986133,0.18949 -1.992188,0.38281 -2.894228,-0.6891 -4.2371625,-2.34792 -6.0529646,-4.62271 -2.0211628,-3.52836 -1.7614918,-7.15799 -1.7056259,-11.13263 -0.010417,-1.38355 -0.010417,-1.38355 -0.021044,-2.79504 -0.017244,-3.08633 0.00104,-6.17142 0.019137,-9.25772 -0.00518,-2.21449 -0.012579,-4.42897 -0.022034,-6.64344 -0.015568,-4.76691 -0.015388,-9.53348 -0.003,-14.30041 0.019529,-7.53869 0.00435,-15.07707 -0.015452,-22.61575 -0.024073,-10.57033 -0.032182,-21.14057 -0.026413,-31.71091 0.00586,-10.8659 0.00694,-21.73176 -0.00195,-32.59766 -5.425e-4,-0.66896 -0.00109,-1.33792 -0.00164,-2.02715 -0.00943,-11.16476 -0.027004,-22.32951 -0.047964,-33.49426 -0.013071,-7.49263 -0.01433,-14.98515 -0.00587,-22.4778 0.00363,-4.66351 -6.78e-4,-9.32699 -0.00684,-13.9905 -0.00108,-2.1607 0.00127,-4.3214 0.00735,-6.48209 0.0079,-2.95284 0.00356,-5.90542 -0.00367,-8.85824 0.00535,-0.85196 0.010691,-1.70392 0.016198,-2.5817 -0.06692,-12.20926 -4.44617774,-22.72976 -12.7493065,-31.69714 -3.551364,-3.14266 -7.464674,-5.51599 -11.497559,-7.98853 -7.615498,-4.72739 -12.504865,-10.97121 -16.01416,-19.23413 -0.826264,-4.12663 -1.133642,-8.05569 -1.16063,-12.25943 -0.01005,-1.2362 -0.02009,-2.4724 -0.03044,-3.74606 -0.006,-1.35706 -0.01191,-2.71411 -0.01767,-4.07117 -0.0095,-1.43953 -0.01944,-2.87905 -0.02965,-4.31857 -0.03127,-4.71459 -0.05164,-9.42919 -0.07021,-14.14383 -0.0033,-0.80423 -0.0066,-1.60845 -0.01,-2.43705 -0.03078,-7.5951 -0.05746,-15.1902 -0.07442,-22.78534 -0.02189,-9.68589 -0.06384,-19.371228 -0.133437,-29.056896 -0.04738,-6.826575 -0.07151,-13.653002 -0.07876,-20.479737 -0.0049,-4.069453 -0.01982,-8.138278 -0.05974,-12.207551 -0.03712,-3.833418 -0.04519,-7.665856 -0.03199,-11.49942 -5.3e-5,-1.39793 -0.01018,-2.795906 -0.03175,-4.193669 -0.150044,-10.279763 1.64327,-18.751881 8.407592,-26.7984255 C -20.745251,1.1077462 -9.9917579,-0.07874351 0,0 Z"
       fill="#192e47"
       id="path3"
       transform="translate(500.87891,177.46875)" />
    <path
       d="m 0,0 v 54 c -12,3 -12,3 -16.40625,4.070312 -26.23663,6.617483 -49.50532,20.515949 -69.292969,38.820313 -2.072107,1.899725 -4.199192,3.691635 -6.363281,5.484375 -4.959638,4.34464 -8.92476,9.41491 -12.9375,14.625 l -1.3418,1.73682 C -113.01889,127.43436 -118.88497,136.28248 -124,146 l -1.03516,1.95801 C -141.18125,178.74581 -146.63494,210.58614 -148,245 h -1 l -0.35132,-2.17139 c -0.52535,-3.23509 -1.0557,-6.46935 -1.58618,-9.70361 -1.47687,-7.81569 -3.10656,-15.54075 -3.26563,-23.53125 l -0.0173,-2.88879 c -0.009,-2.03104 -0.016,-4.06209 -0.0198,-6.09314 -0.01,-3.04408 -0.0405,-6.08744 -0.0723,-9.13135 -0.083,-15.18111 1.23275,-29.73369 5.5625,-44.35547 l 0.64014,-2.20801 c 0.68382,-2.31212 1.39217,-4.61517 2.10986,-6.91699 l 0.7334,-2.38184 C -139.1289,116.02019 -130.19725,97.552071 -118,81 l 1.2793,-1.746094 c 19.014478,-25.676697 43.21594,-47.599782 71.709958,-62.217773 1.83757,-0.946898 3.655806,-1.931077 5.47168,-2.918945 C -28.335803,8.1829192 -12.887102,0 0,0 Z"
       fill="#182c45"
       id="path4"
       sodipodi:nodetypes="cccccccccccccccccccccccccc"
       transform="translate(458,239)" />
    <path
       d="m 0,0 c 8.0419421,2.0104855 15.217397,4.015085 22.75,7.1875 0.950281,0.3965478 1.900562,0.7930957 2.879639,1.2016602 C 43.811857,16.070148 60.701658,25.420078 76,38 c 0.774727,0.59168 1.549453,1.183359 2.347656,1.792969 C 98.793782,55.736629 115.05648,75.652934 128,98 c 0.38108,0.653716 0.76216,1.307432 1.15479,1.980957 C 138.84879,116.82878 145.9765,134.9854 150,154 c 0.28488,1.21043 0.56977,2.42086 0.86328,3.66797 2.96378,12.88051 3.39891,25.72704 3.44922,38.89453 0.004,0.7552 0.008,1.5104 0.012,2.28848 C 154.36,213.52883 152.7557,227.5674 150,242 c -0.33,0 -0.66,0 -1,0 -0.10957,-1.13953 -0.21914,-2.27906 -0.33203,-3.45313 C 143.87527,190.06028 130.73408,147.12894 98,110 97.350312,109.22785 96.700625,108.4557 96.03125,107.66016 92.049672,102.94561 87.721127,98.961499 83,95 82.172422,94.261367 81.344844,93.522734 80.492187,92.761719 56.968237,72.219216 29.79258,62.125249 0,54 0,36.18 0,18.36 0,0 Z"
       fill="#182c45"
       id="path5"
       transform="translate(570,239)" />
    <path
       d="m 0,0 c 20.651315,2.5814144 40.736745,11.535452 58,23 l 1.807617,1.195312 C 67.580875,29.397061 74.613476,35.10675 81.390625,41.546875 83.437277,43.470973 85.495792,45.250655 87.6875,47 92.463433,51.04916 96.151529,56.095085 100,61 l 2.51563,3.109375 C 108.52892,71.616483 113.52086,79.485151 118,88 l 1.02344,1.93457 c 16.41237,29.46273 22.11154,62.26311 24.685,95.31305 0.11194,29.89565 -2.37189,29.73007 -9.33344,41.81488 l -1.27344,2.36914 C 132.09223,231.30121 131.04992,233.15292 130,235 h -1 l -0.0442,-3.29443 c -0.059,-4.12676 -0.13623,-8.25304 -0.21826,-12.3794 -0.0328,-1.76847 -0.0609,-3.53704 -0.084,-5.30566 -0.21725,-16.25273 -2.07521,-31.72583 -6.52856,-47.39551 l -0.80029,-2.84204 C 119.35087,156.92695 117.15789,150.41238 114,144 l -1.22705,-2.50342 C 106.73483,129.27944 100.43757,117.71838 92,107 l -2.199219,-2.86719 C 66.860799,75.056282 35.671686,56.917922 0,48 Z"
       fill="#182d46"
       id="path6"
       sodipodi:nodetypes="ccccccccccccccccccccccccc"
       transform="translate(570,300)" />
    <path
       d="m 0,0 c 0,15.51 0,31.02 0,47 -5.28,1.32 -10.56,2.64 -16,4 -40.149996,12.470034 -72.98827,42.37737 -92.54688,79.16406 C -115.97791,144.58311 -121.51534,159.16063 -125,175 c -0.15694,0.70447 -0.31389,1.40895 -0.47559,2.13477 -2.77776,12.65226 -3.72605,25.02383 -4.08691,37.92773 -0.0433,1.45248 -0.0869,2.90496 -0.13086,4.35742 -0.10601,3.52659 -0.20757,7.05329 -0.30664,10.58008 -11.00861,-10.49561 -10.66939,-27.78412 -11.08447,-41.86572 -0.13493,-6.3832 -0.0626,-12.75213 0.0845,-19.13428 0.009,-0.72961 0.0174,-1.45922 0.0264,-2.21094 C -140.59606,139.18699 -132.07529,112.11787 -119,88 c 0.48984,-0.966797 0.97969,-1.933594 1.48437,-2.929688 C -97.186513,45.668383 -58.812364,15.37779 -17,2 -16.231719,1.7537891 -15.463438,1.5075781 -14.671875,1.2539062 -9.4713061,-0.23050809 -5.7506631,0 0,0 Z"
       fill="#182d46"
       id="path7"
       transform="translate(458,301)" />
    <path
       d="M 0,0 C 0.43570313,0.92941406 0.87140625,1.8588281 1.3203125,2.8164063 6.8556614,14.417118 11.409789,20.190502 22.71875,26.804687 27.659754,30.110455 31.431569,34.269755 35,39 c 0,0.33 0,0.66 0,1 -0.734121,0.06993 -1.468242,0.139863 -2.224609,0.211914 C -9.2125246,44.30028 -45.717292,58.934077 -73.457031,91.921875 -94.13124,117.59739 -108.3211,151.62536 -108.09766,184.875 c 0.002,1.2149 0.002,1.2149 0.004,2.45435 0.006,2.55692 0.0181,5.11375 0.0309,7.67065 0.005,1.74609 0.01,3.49219 0.0137,5.23828 0.011,4.25394 0.0282,8.50782 0.0488,12.76172 -0.7765,-0.78182 -1.553,-1.56363 -2.35303,-2.36914 -1.62611,-1.61621 -3.28622,-3.20003 -4.99853,-4.72461 C -125.26055,195.41838 -124.36814,180.6486 -125,167 c -0.0498,-0.97727 -0.0996,-1.95454 -0.15088,-2.96143 C -126.77537,127.51756 -114.46807,88.846099 -92,60 c 0.465352,-0.656133 0.930703,-1.312266 1.410156,-1.988281 C -72.204286,32.121851 -33.675288,0 0,0 Z"
       fill="#182d46"
       id="path8"
       transform="translate(460,354)" />
    <path
       d="m 0,0 c 30.563348,0.97026502 59.919365,24.163314 80.347656,45.101562 28.855234,31.532521 44.397494,72.892038 43.933594,115.450928 -0.0315,2.90646 -0.041,5.81238 -0.0469,8.71899 C 124.21413,174.51611 124.13341,179.75707 124,185 l -0.0908,3.58691 c -0.31298,5.68939 -1.17455,8.94721 -5.15918,13.28809 l -2.32812,2.61719 C 113.97632,207.02452 111.50258,209.52405 109,212 l 0.0476,-2.20532 C 109.62202,178.90972 106.21122,151.10375 93,123 l -1.046875,-2.22705 C 86.134924,108.63994 78.89905,96.573452 69.140625,87.171875 67,85 65,83 65,83 61.214809,78.666496 57.937862,75.041309 53.6875,71.75 L 51.846436,70.324707 C 25.795148,50.514978 -0.73587569,42.354233 -33,39 c 3.143117,-6.508756 6.768256,-9.987781 12.8125,-13.875 8.925106,-5.778294 16.8691338,-12.773122 19.81640625,-23.390625 z"
       fill="#182c45"
       id="path9"
       sodipodi:nodetypes="ccccccccccsccccccccc"
       transform="translate(568,355)" />
    <path
       d="M 0,0 C 0.77021484,0.00451172 1.5404297,0.00902344 2.3339844,0.01367188 4.2018578,0.02527357 6.0696903,0.04320001 7.9375,0.0625 c 1.1666195,4.1640476 1.1257606,8.1898068 1.0976563,12.484375 -0.00212,1.223391 -0.00212,1.223391 -0.00429,2.471497 C 9.025283,17.616452 9.0127332,20.214446 9,22.8125 8.99498,24.576822 8.99042,26.341145 8.986328,28.105469 8.975318,32.424513 8.958064,36.743492 8.9375,41.0625 7.7664673,41.11003 6.5954346,41.15757 5.388916,41.206543 -3.2784274,41.596636 -11.666442,42.119525 -20.125,44.1875 c -1.382036,0.330403 -1.382036,0.330403 -2.791992,0.66748 -20.159063,5.055466 -38.814573,15.125773 -54.145508,29.20752 -0.508374,0.465996 -1.016748,0.931992 -1.540527,1.412109 -29.448083,27.318771 -42.718713,63.429291 -44.308353,103.052491 -0.0606,1.84483 -0.1076,3.69009 -0.15112,5.5354 -1.14626,-0.97866 -2.292,-1.95795 -3.4375,-2.9375 -0.63809,-0.54527 -1.27617,-1.09055 -1.93359,-1.65234 -4.85485,-4.20288 -3.96322,-13.16845 -4.43555,-19.31983 -2.54944,-40.74598 7.02228,-80.245008 34.16455,-111.662107 3.138729,-3.54912 6.378561,-6.993986 9.64209,-10.428223 0.854648,-0.951328 0.854648,-0.951328 1.726563,-1.921875 C -65.815118,12.964358 -31.2739,-0.35631963 0,0 Z"
       fill="#192d46"
       id="path10"
       transform="translate(491.0625,400.9375)" />
    <path
       d="m 0,0 c 15.465272,-0.3400928 30.509073,2.7801498 45,8 l 3.382812,1.1523438 c 16.029269,5.7357742 30.011029,14.5062812 42.438264,26.0361012 1.84902,1.689346 -1.988194,-1.995855 0.0692,0.03463 C 113.97575,54.94078 131.96344,93.357021 138,122 l 0.57959,2.677 c 1.37037,6.79888 1.73542,13.33432 1.67041,20.2605 l -0.0271,3.26709 c -0.0992,6.98121 -0.28711,13.95561 -0.7854,20.92041 l -0.11035,2.41772 c -0.51527,5.69548 -2.55047,8.41254 -6.74878,12.23804 C 131,185 131,185 130,185 l -0.0125,-1.76221 C 129.80439,168.26006 127.97697,154.44037 124,140 l -0.67041,-2.49438 c -1.75757,-6.23068 -4.15067,-11.98923 -6.95459,-17.81812 l -1.33179,-2.7749 C 111.34331,109.37992 107.15432,102.64396 102,96 L 99.859375,93.191406 C 85.696938,75.23364 68.818414,62.373974 48,53 L 45.269531,51.765625 C 32.293411,46.261887 18.638213,43.399407 4.625,42.449219 L 0.8515625,42.190186 -2,42 c -0.049614,-5.017075 -0.08582,-10.034006 -0.1098633,-15.05127 -0.010028,-1.705103 -0.023654,-3.410189 -0.041016,-5.115234 -0.024389,-2.457562 -0.035636,-4.914897 -0.044434,-7.372558 l -0.03128,-2.292389 C -2.2275256,7.7217706 -1.6512164,4.1308978 0,0 Z"
       fill="#192d46"
       id="path11"
       sodipodi:nodetypes="cccccccccccccccccccccccccccccc"
       transform="translate(531,400)" />
    <path
       d="m 0,0 c 0,8.58 0,17.16 0,26 -2.0869922,0.30293 -4.1739844,0.605859 -6.3242187,0.917969 -2.0693272,0.310979 -4.1378163,0.627059 -6.2062993,0.943603 -1.41392,0.213649 -2.828627,0.422169 -4.24414,0.625 C -41.492509,32.040257 -62.179573,43.764809 -80,61 c -0.538425,0.50491 -1.076851,1.009819 -1.631592,1.530029 -4.43425,4.259334 -7.947194,8.767544 -11.305908,13.907471 -0.772592,1.177438 -0.772592,1.177438 -1.560791,2.378662 C -109.20103,101.61951 -113.84075,124.09325 -115,151 c -1.31323,-0.97819 -2.62556,-1.95758 -3.9375,-2.9375 -0.7309,-0.54527 -1.4618,-1.09055 -2.21484,-1.65234 -2.81083,-2.14527 -2.81083,-2.14527 -3.39454,-6.34375 C -125.98429,125.7404 -125.24183,112.00472 -122,98 c 0.23203,-1.268438 0.23203,-1.268438 0.46875,-2.5625 C -118.64422,79.891935 -109.53376,63.468928 -100,51 c 0.495,-0.697383 0.99,-1.394766 1.5,-2.113281 C -79.602473,23.044351 -50.971151,6.2148363 -19.770996,0.41015625 -13.134644,-0.57214086 -6.6943122,-0.29361018 0,0 Z"
       fill="#192d46"
       id="path12"
       transform="translate(500,449)" />
    <path
       d="M 0,0 C 32.116725,-0.78975554 60.434858,12.051262 83.769531,33.863281 84.505586,34.568398 85.241641,35.273516 86,36 c 0.684492,0.63293 1.368984,1.265859 2.074219,1.917969 C 96.572863,46.015891 103.38835,55.721519 109,66 c 0.31324,0.572021 0.62648,1.144043 0.94922,1.733398 C 115.24098,77.510989 119.20344,87.24192 122,98 c 0.31969,1.157578 0.63938,2.31516 0.96875,3.50781 2.00599,8.59977 2.47059,17.26748 2.66782,26.07221 0.0501,2.01326 0.13486,4.02557 0.22012,6.03766 0.0732,9.24923 0.0732,9.24923 -2.68628,12.61181 C 121.17113,147.737 119.26469,148.94086 117,150 c -0.0595,-0.64735 -0.11892,-1.2947 -0.18018,-1.96167 C 113.24564,110.7134 100.49832,77.87557 71.507812,52.9375 63.352351,46.636707 54.43208,41.15478 45,37 44.052539,36.581055 43.105078,36.162109 42.128906,35.730469 29.74057,30.611194 16.68881,27.760435 3.3085938,27.175781 1,27 1,27 0,26 c -0.08748207,-1.926675 -0.10697334,-3.856519 -0.09765625,-5.785156 0.0032227,-1.169824 0.0064453,-2.339649 0.0097656,-3.544922 0.0083789,-1.231699 0.01675781,-2.463399 0.02539062,-3.732422 0.0045117,-1.235566 0.0090234,-2.471133 0.01367188,-3.7441406 C -0.03699608,6.1288588 -0.02051173,3.0644528 0,0 Z"
       fill="#192d46"
       id="path13"
       transform="translate(529,449)" />
    <path
       d="m 0,0 c 2.2593435,1.6381715 2.9231903,2.5334382 3.3803167,5.3101416 0.00364,1.3707485 0.00364,1.3707485 0.00736,2.7691888 0.0099,1.0501127 0.019809,2.1002256 0.030014,3.1821596 -0.00675,1.727658 -0.00675,1.727658 -0.013641,3.490219 0.00686,1.213209 0.013727,2.426418 0.020798,3.676392 0.015182,3.328685 0.016757,6.656812 0.011058,9.985491 -0.00309,2.77839 0.003,5.556729 0.00904,8.335112 0.014054,6.554592 0.012477,13.109055 0.0011,19.66365 -0.011481,6.762615 0.00259,13.524835 0.029396,20.287398 0.022151,5.805624 0.028796,11.611123 0.022924,17.416786 -0.00337,3.467679 -9.355e-4,6.935102 0.016251,10.402752 0.018327,3.86669 0.00429,7.7329 -0.012907,11.59961 0.014502,1.72462 0.014502,1.72462 0.029297,3.48408 -0.00983,1.05293 -0.019668,2.10587 -0.0298,3.19071 -2.092e-4,0.91421 -4.185e-4,1.82841 -6.341e-4,2.77033 C 2.8409724,128.77389 1.5266561,129.98 -1,132 c -2.5625,0.4375 -2.5625,0.4375 -5,0 -2.2400135,-1.66033 -2.9267193,-2.54801 -3.3775234,-5.32855 -0.00113,-0.92251 -0.00226,-1.84501 -0.00343,-2.79547 -0.00846,-1.05998 -0.016919,-2.11995 -0.025635,-3.21204 0.00607,-1.16269 0.012145,-2.32539 0.018402,-3.52331 -0.00526,-1.22457 -0.010514,-2.44914 -0.01593,-3.71082 -0.010953,-3.35962 -0.00837,-6.71868 0.00114,-10.07826 0.00759,-3.514003 5.529e-4,-7.027979 -0.00416,-10.54198 -0.00546,-5.90141 0.00174,-11.802708 0.016022,-17.704101 0.016327,-6.825062 0.011039,-13.649855 -0.00548,-20.474911 -0.013609,-5.857407 -0.015537,-11.714733 -0.00768,-17.572151 0.00468,-3.499454 0.00529,-6.998781 -0.00461,-10.498226 -0.010266,-3.900375 0.00396,-7.800449 0.020702,-11.700806 -0.00607,-1.162694 -0.012145,-2.325388 -0.018402,-3.523315 0.00846,-1.059972 0.016919,-2.1199443 0.025635,-3.2120366 0.00113,-0.9225055 0.00226,-1.845011 0.00343,-2.7954711 C -8.4950619,-0.11444207 -4.9567583,-0.61959479 0,0 Z"
       fill="#F4F5F7"
       id="path14"
       style="fill:#c7cdd4;fill-opacity:1"
       transform="translate(518,229)" />
    <path
       d="M 0,0 C 0,4.3896846 -2.128051,5.7690574 -5,9 -5.66,8.67 -6.32,8.34 -7,8 -4.69,5.36 -2.38,2.72 0,0 Z"
       fill="#314258"
       id="path32"
       transform="translate(376,404)" />
    <circle
       style="opacity:0.8;fill:#f3f5f7;fill-opacity:1;paint-order:markers fill stroke"
       id="path33"
       cx="479.27042"
       cy="506.22781"
       r="5.7080808" />
    <circle
       style="opacity:0.8;fill:#f3f5f7;fill-opacity:1;stroke-width:1.08205;paint-order:markers fill stroke"
       id="path33-9"
       cx="453.82303"
       cy="518.18817"
       r="6.1764359" />
    <circle
       style="opacity:0.8;fill:#f3f5f7;fill-opacity:1;stroke-width:1.56569;paint-order:markers fill stroke"
       id="path33-8"
       cx="475.28766"
       cy="545.25525"
       r="8.9370584" />
    <circle
       style="opacity:0.8;fill:#f3f5f7;fill-opacity:1;stroke-width:2.29092;paint-order:markers fill stroke"
       id="path33-2"
       cx="442.95001"
       cy="566.1673"
       r="13.076775" />
    <circle
       style="opacity:0.8;fill:#f3f5f7;fill-opacity:1;paint-order:markers fill stroke"
       id="path33-1"
       cx="417.00671"
       cy="593.70685"
       r="5.7080808" />
    <circle
       style="opacity:0.8;fill:#f3f5f7;fill-opacity:1;stroke-width:2.08718;paint-order:markers fill stroke"
       id="path33-11"
       cx="470.22601"
       cy="603.71021"
       r="11.913789" />
    <circle
       style="opacity:0.8;fill:#f3f5f7;fill-opacity:1;stroke-width:1.65641;paint-order:markers fill stroke"
       id="path33-27"
       cx="434.20892"
       cy="619.33246"
       r="9.4549236" />
    <circle
       style="opacity:0.8;fill:#f3f5f7;fill-opacity:1;stroke-width:0.85641;paint-order:markers fill stroke"
       id="path33-5-7"
       cx="-550.80518"
       cy="575.14093"
       r="4.8884587"
       transform="scale(-1,1)" />
    <circle
       style="opacity:0.8;fill:#f3f5f7;fill-opacity:1;paint-order:markers fill stroke"
       id="path33-7"
       cx="-549.61945"
       cy="505.70807"
       r="5.7080808"
       transform="scale(-1,1)" />
    <circle
       style="opacity:0.8;fill:#f3f5f7;fill-opacity:1;stroke-width:1.08205;paint-order:markers fill stroke"
       id="path33-9-9"
       cx="-575.06683"
       cy="517.66846"
       r="6.1764359"
       transform="scale(-1,1)" />
    <circle
       style="opacity:0.8;fill:#f3f5f7;fill-opacity:1;stroke-width:1.56569;paint-order:markers fill stroke"
       id="path33-8-3"
       cx="-553.60223"
       cy="544.73553"
       r="8.9370584"
       transform="scale(-1,1)" />
    <circle
       style="opacity:0.8;fill:#f3f5f7;fill-opacity:1;stroke-width:2.29092;paint-order:markers fill stroke"
       id="path33-2-1"
       cx="-585.93988"
       cy="565.64758"
       r="13.076775"
       transform="scale(-1,1)" />
    <circle
       style="opacity:0.8;fill:#f3f5f7;fill-opacity:1;paint-order:markers fill stroke"
       id="path33-1-9"
       cx="-611.88318"
       cy="593.18713"
       r="5.7080808"
       transform="scale(-1,1)" />
    <circle
       style="opacity:0.8;fill:#f3f5f7;fill-opacity:1;stroke-width:2.08718;paint-order:markers fill stroke"
       id="path33-11-8"
       cx="-558.66388"
       cy="603.19049"
       r="11.913789"
       transform="scale(-1,1)" />
    <circle
       style="opacity:0.8;fill:#f3f5f7;fill-opacity:1;stroke-width:1.65641;paint-order:markers fill stroke"
       id="path33-27-6"
       cx="-594.68097"
       cy="618.81274"
       r="9.4549236"
       transform="scale(-1,1)" />
  </g>
</svg>
